<svg id="Calque_1" data-name="Calque 1" xmlns="http://www.w3.org/2000/svg" viewBox="0 0 316.24 287.51"><defs><style>.cls-1{fill:#010101;}</style></defs><g id="layer1"><g id="g4322"><path id="path4197" class="cls-1" d="M84.44-1128.53c-23.46,0-44.94,15.72-54.57,36.68-12.83,27.45-8.46,60.77,6.82,86.29,4.15,5.45,12.45,6,17.6,1.64,6.75-3.71,15.34-7.7,17.44-15.82,1.08-9-6.3-15.88-7.41-24.48-3.77-14.33-1.17-32.43,12-41.17,10.73-5.86,23.59.39,31.36,8.41,21.32,19.92,30.08,49.08,37,76.45C157.2-948.33,159.15-894.47,160.9-841h38.74c2.44-47.6,1.93-95.54,12.41-142.23,6.61-31.57,16.29-63.7,36.9-89.15,7.69-8.92,19.19-17.84,31.53-14.86,13.52,4.73,18.26,21,17.17,34-.64,11-5.75,20.93-9.25,31.15-.78,7.44,6.07,12.5,12.29,14.76,5.68,3.57,13.28,9,20,4.59,7.31-5,8.53-14.54,12.23-22,10.48-28.41,6.94-63.65-15-85.82-16.94-17.43-44.65-22.88-66.9-13-22,9-37.71,28.27-48.91,48.59a261.76,261.76,0,0,0-21.84,50.53c-10.15-33.53-25.66-67.53-53.82-89.7-12-9-26.88-14.48-42-14.34Z" transform="translate(-22.33 1128.53)"/></g></g></svg>