<?xml version="1.0" encoding="utf-8"?>
<!-- Generator: Adobe Illustrator 26.0.2, SVG Export Plug-In . SVG Version: 6.00 Build 0)  -->
<svg version="1.1" id="Calque_1" xmlns="http://www.w3.org/2000/svg" xmlns:xlink="http://www.w3.org/1999/xlink" x="0px" y="0px"
	 viewBox="0 0 316.2 287.5" style="enable-background:new 0 0 316.2 287.5;" xml:space="preserve">
<style type="text/css">
	.st0{fill:#FF0000;}
</style>
<g id="layer1">
	<g id="g4322">
		<path id="path4197" class="st0" d="M62.1,0C38.7,0,17.2,15.7,7.5,36.7C-5.3,64.1-0.9,97.5,14.4,123c4.2,5.5,12.5,6,17.6,1.6
			c6.7-3.7,15.3-7.7,17.4-15.8c1.1-9-6.3-15.9-7.4-24.5C38.2,70,40.8,51.9,54,43.1c10.7-5.9,23.6,0.4,31.4,8.4
			c21.3,19.9,30.1,49.1,37,76.5c12.5,52.2,14.5,106.1,16.2,159.5h38.7c2.4-47.6,1.9-95.5,12.4-142.2c6.6-31.6,16.3-63.7,36.9-89.2
			c7.7-8.9,19.2-17.8,31.5-14.9c13.5,4.7,18.3,21,17.2,34c-0.6,11-5.8,20.9-9.2,31.2c-0.8,7.4,6.1,12.5,12.3,14.8
			c5.7,3.6,13.3,9,20,4.6c7.3-5,8.5-14.5,12.2-22c10.5-28.4,6.9-63.7-15-85.8C278.7,0.5,250.9-4.9,228.7,5
			c-22,9-37.7,28.3-48.9,48.6c-9,16-16.4,33-21.8,50.5c-10.1-33.5-25.7-67.5-53.8-89.7C92.1,5.4,77.2-0.1,62.1,0L62.1,0z"/>
	</g>
</g>
</svg>
