<svg id="Calque_1" data-name="Calque 1" xmlns="http://www.w3.org/2000/svg" viewBox="0 0 310.97 236.6"><defs><style>.cls-1{fill:#010101;}</style></defs><g id="layer1"><g id="g4322"><path id="path4181" class="cls-1" d="M-645.76-717.66c-49.8,0-98.84,35.54-110.45,84.64-5.29,22.89.09,48.5,15.8,66.25-17.16,1.16-34.67.87-51.51,4.56-8,3.93-7.72,14.39-7.29,22,0,7.65,7.33,15.08,15.14,12.85,43.26-3.16,86.69-4.6,130-5.19,5-3.32,1.32-10.24,2.46-15V-567c-16.73-3.64-35.51-2.85-49.53-14.16-13.3-9.64-18.78-27.24-15.68-43.07,4.61-29,30.67-52.19,59.34-56,27.73-4.77,59.2,5.64,75.43,29.65,12.06,17.09,16,41.48,4.48,59.77-10.66,16.53-31.31,20.77-49.75,22.28-4,.11-8.54,2.21-8.55,6.79.55,9.74,0,19.49.17,29.26,49.17.62,98.37,1.64,147.28,6.49l-1.2-37c-20.26-1-40.45-3.25-60.73-4.07,20.1-26.74,22.9-65.2,6.46-94.41-18.39-34.68-57.28-55.86-96.09-56.22-1.92-.06-3.84-.07-5.77,0ZM-678.6-521.71c-37.39.23-74.83,2.13-112.07,4.9-5.41,1.35-7.22,7.65-5.89,12.53.38,7.73-.11,15.47.13,23.2,37.38-.34,74.59-4.13,112-4.14,60.72-1.27,121.46.62,182.05,4.05,8.38-1.1,12.12-10.81,10.74-18.3q0-8.16,0-16.32c-53.7-6.18-107.86-5.2-161.82-6-8.38,0-16.75,0-25.12,0Z" transform="translate(799.39 717.68)"/></g></g></svg>