<?xml version="1.0" encoding="utf-8"?>
<!-- Generator: Adobe Illustrator 26.0.2, SVG Export Plug-In . SVG Version: 6.00 Build 0)  -->
<svg version="1.1" id="Calque_1" xmlns="http://www.w3.org/2000/svg" xmlns:xlink="http://www.w3.org/1999/xlink" x="0px" y="0px"
	 viewBox="0 0 311 236.6" style="enable-background:new 0 0 311 236.6;" xml:space="preserve">
<style type="text/css">
	.st0{fill:#66CC33;}
</style>
<g id="layer1">
	<g id="g4322">
		<path id="path4181" class="st0" d="M153.6,0C103.8,0,54.8,35.6,43.2,84.7c-5.3,22.9,0.1,48.5,15.8,66.2
			c-17.2,1.2-34.7,0.9-51.5,4.6c-8,3.9-7.7,14.4-7.3,22c0,7.7,7.3,15.1,15.1,12.8c43.3-3.2,86.7-4.6,130-5.2c5-3.3,1.3-10.2,2.5-15
			v-19.5c-16.7-3.6-35.5-2.8-49.5-14.2c-13.3-9.6-18.8-27.2-15.7-43.1c4.6-29,30.7-52.2,59.3-56c27.7-4.8,59.2,5.6,75.4,29.7
			c12.1,17.1,16,41.5,4.5,59.8c-10.7,16.5-31.3,20.8-49.8,22.3c-4,0.1-8.5,2.2-8.5,6.8c0.5,9.7,0,19.5,0.2,29.3
			c49.2,0.6,98.4,1.6,147.3,6.5l-1.2-37c-20.3-1-40.4-3.2-60.7-4.1c20.1-26.7,22.9-65.2,6.5-94.4C237.1,21.5,198.2,0.4,159.4,0
			C157.5-0.1,155.6-0.1,153.6,0L153.6,0z M120.8,196c-37.4,0.2-74.8,2.1-112.1,4.9c-5.4,1.3-7.2,7.6-5.9,12.5
			c0.4,7.7-0.1,15.5,0.1,23.2c37.4-0.3,74.6-4.1,112-4.1c60.7-1.3,121.5,0.6,182,4c8.4-1.1,12.1-10.8,10.7-18.3c0-5.4,0-10.9,0-16.3
			c-53.7-6.2-107.9-5.2-161.8-6C137.5,195.9,129.2,195.9,120.8,196L120.8,196z"/>
	</g>
</g>
</svg>
