<?xml version="1.0" encoding="utf-8"?>
<!-- Generator: Adobe Illustrator 26.0.2, SVG Export Plug-In . SVG Version: 6.00 Build 0)  -->
<svg version="1.1" id="Calque_1" xmlns="http://www.w3.org/2000/svg" xmlns:xlink="http://www.w3.org/1999/xlink" x="0px" y="0px"
	 viewBox="0 0 268.4 289" style="enable-background:new 0 0 268.4 289;" xml:space="preserve">
<style type="text/css">
	.st0{fill:#996633;}
</style>
<g id="layer1">
	<g id="g4322">
		<path id="path4175" class="st0" d="M4.4,0C-3,1.8,1.6,11.2,0.3,16.4c0,7.7,0,15.4,0,23.2c9.6-0.8,21.1-1.2,27.7,7.2
			c20.7,19.6,32.6,46.6,53.1,66.4c-31,19.4-47.3,58.5-41,94.3c5.3,34.7,30.4,66.5,64.5,76.7c33,10.9,72.4,3,96.5-22.7
			c30.2-30.6,38.4-82.4,15.3-119.5c-7.2-11.6-17-21.5-28.6-28.9c21.5-20.8,33.3-49.8,56.4-69.1c5.6-4.2,12.8-5.4,19.6-5.2
			c6.1-2.2,4.4-9.8,4.5-14.8V1.1c-16.6-1.5-34.7,0.8-47.7,12.2c-27.7,21-39.7,56-66.6,77.7c-13.4,9.6-33.1,7.1-44.7-4.6
			C85.9,64.1,73.6,31.9,47.1,12.6C35,2.9,19.3,0.9,4.4,0L4.4,0z M136,135.6c32.9,0.1,61,33.5,55.1,66c-3.9,28.6-32.2,51.9-61.2,48.9
			c-25.5-2.2-48.9-23.2-52.2-49.1c-3.6-22.6,7.6-47.1,28.1-58C114.9,138.2,125.4,135.5,136,135.6L136,135.6z"/>
	</g>
</g>
</svg>
