<?xml version="1.0" encoding="utf-8"?>
<!-- Generator: Adobe Illustrator 26.0.2, SVG Export Plug-In . SVG Version: 6.00 Build 0)  -->
<svg version="1.1" id="Calque_1" xmlns="http://www.w3.org/2000/svg" xmlns:xlink="http://www.w3.org/1999/xlink" x="0px" y="0px"
	 viewBox="0 0 219.4 287.5" style="enable-background:new 0 0 219.4 287.5;" xml:space="preserve">
<style type="text/css">
	.st0{fill:#FF0000;}
</style>
<g id="layer1">
	<g id="g4322">
		<path id="path4199" class="st0" d="M130.8,0C88,0.1,47.3,35.4,43.8,78.6c-1.2,11.3,0.6,22.8,3.5,33.8
			C20.6,118,0.5,143.5,0.1,170.5c-1.2,24.7,13.4,49.9,36.5,59.5c22.1,10.2,50.5,6.5,67.8-11.1c21.6-20.3,27.2-56.7,9.5-81.3
			c-8.1-11.8-22.8-18.6-27.3-32.9c-8.5-22,1.1-50.3,23.1-60.3c19.2-9.5,44.2-4,57.7,12.4c10.4,11.9,13.9,29.7,7,44.2
			c-8.6,20.5-26.1,35.6-35.3,55.7c-14.9,28.6-23,62.8-13.7,94.4c5.8,18.4,21.8,34.8,41.8,36.1c17.8,1.6,35.5-3.5,49.8-14.3
			c4.7-5.3,2.1-13.2-1.8-18.1c-3.2-6.2-7.7-14.4-15.8-14c-10.2,1.5-19.7,10.4-30.1,6.1c-8.9-5.4-9-17.5-8.5-26.7
			c2.1-28.8,17.7-55.2,35.4-77.6c15.6-22.4,26-50.9,19-78.2C205.5,27.5,169.1-1,130.8,0L130.8,0z M62.6,150
			c15.5-0.2,27.3,18.2,20.5,32.3c-5.5,12.7-23.5,18.1-34.5,9c-10.5-7.5-12.6-24.5-3-33.6C49.9,152.8,56.1,150,62.6,150L62.6,150z"/>
	</g>
</g>
</svg>
