<?xml version="1.0" encoding="utf-8"?>
<!-- Generator: Adobe Illustrator 26.0.2, SVG Export Plug-In . SVG Version: 6.00 Build 0)  -->
<svg version="1.1"
	 id="svg9" inkscape:version="0.92.5 (2060ec1f9f, 2020-04-08)" sodipodi:docname="Mars.svg" xmlns:cc="http://creativecommons.org/ns#" xmlns:dc="http://purl.org/dc/elements/1.1/" xmlns:inkscape="http://www.inkscape.org/namespaces/inkscape" xmlns:rdf="http://www.w3.org/1999/02/22-rdf-syntax-ns#" xmlns:sodipodi="http://sodipodi.sourceforge.net/DTD/sodipodi-0.dtd" xmlns:svg="http://www.w3.org/2000/svg"
	 xmlns="http://www.w3.org/2000/svg" xmlns:xlink="http://www.w3.org/1999/xlink" x="0px" y="0px" viewBox="0 0 12 12"
	 style="enable-background:new 0 0 12 12;" xml:space="preserve">
<style type="text/css">
	.st0{fill:none;stroke:#999999;stroke-miterlimit:10;}
</style>
<sodipodi:namedview  bordercolor="#666666" borderopacity="1" gridtolerance="10" guidetolerance="10" id="namedview11" inkscape:current-layer="svg9" inkscape:cx="3.9131625" inkscape:cy="8.0306833" inkscape:pageopacity="0" inkscape:pageshadow="2" inkscape:snap-intersection-paths="true" inkscape:snap-midpoints="true" inkscape:snap-object-midpoints="true" inkscape:snap-smooth-nodes="true" inkscape:window-height="1015" inkscape:window-maximized="1" inkscape:window-width="1920" inkscape:window-x="0" inkscape:window-y="0" inkscape:zoom="41.7193" objecttolerance="10" pagecolor="#ffffff" showgrid="false">
	</sodipodi:namedview>
<g id="g1413" transform="rotate(-45,5.233483,5.4282608)">
	<path id="path2" inkscape:connector-curvature="0" sodipodi:nodetypes="cssc" class="st0" d="M5.7,8.3c1.4,0,2.6-1.2,2.6-2.6
		S7.1,3.2,5.7,3.2S3.1,4.4,3.1,5.8"/>
	<path id="path23" inkscape:connector-curvature="0" class="st0" d="M3.1,5.8C3.1,5.3,2.7,5,2.3,5S1.5,5.3,1.5,5.8s0.4,0.8,0.8,0.8
		S3.1,6.2,3.1,5.8z"/>
	<path id="path23-3" inkscape:connector-curvature="0" class="st0" d="M6.5,9.2c0-0.4-0.4-0.8-0.8-0.8S4.9,8.7,4.9,9.1
		c0,0.4,0.4,0.8,0.8,0.8C6.1,9.9,6.5,9.6,6.5,9.2z"/>
</g>
</svg>
