<svg id="Calque_1" data-name="Calque 1" xmlns="http://www.w3.org/2000/svg" viewBox="0 0 310.77 311.88"><defs><style>.cls-1{fill:#010101;}</style></defs><g id="layer1"><g id="g4322"><path id="path4159" class="cls-1" d="M176.3,32.75c-16.74.52-29.08,14-38.37,26.51-9.4,12.73-16.82,26.77-24,40.84-10.19-27.28-29.8-52.95-58.06-62.9-6.49-2.87-16.23-4-20.38,3.14-4.56,7.52-3.88,16.84-7,24.85.14,5.94,7.44,6.41,11.85,6.87,17.49,2.75,28.62,19,34.93,34.24,15,35.46,16,75.09,17.93,113.15a175.25,175.25,0,0,1,37.36-2.34c-.79-18-1.47-36-3.11-53.91,13.33-30.67,24.2-63.12,44.75-89.87,1.8-2.93,3.21-.24,4.17,2,6.1,12.92,7.37,27.72,10.07,41.68a829.25,829.25,0,0,1,9.27,103.12c-.12,23.51-4,49.39-21.37,66.75-13.15,12.76-31,18-48.31,22.49-5.55,2.19-7.62,8.88-5.77,14.24,1,7.26,1.81,17.28,9.92,20.12,9.37,2.85,18.79-1.93,27.69-4.4,27.58-9.51,53-29,64-56.67,2.27-5.3,4-10.8,5.86-16.24,27.49,18.62,67.93,15,90.94-9.24,23.36-23.66,27.89-64.24,8.06-91.46-18.43-26.83-56-38.42-86.21-25.85A66.43,66.43,0,0,0,228,146.48c-4-32.16-7.74-65.53-23.3-94.51-6-10.1-16-19.51-28.44-19.22Zm91.79,139.77c19.22,0,36.33,18.72,33.3,38-1.95,17.61-19.33,32.62-37.39,30.19-21-1.88-36.81-26.19-28.49-46,5-13.16,18.22-23,32.58-22.22Z" transform="translate(-28.53 -32.75)"/></g></g></svg>