<?xml version="1.0" encoding="utf-8"?>
<!-- Generator: Adobe Illustrator 26.0.2, SVG Export Plug-In . SVG Version: 6.00 Build 0)  -->
<svg version="1.1" id="Calque_1" xmlns="http://www.w3.org/2000/svg" xmlns:xlink="http://www.w3.org/1999/xlink" x="0px" y="0px"
	 viewBox="0 0 310.8 311.9" style="enable-background:new 0 0 310.8 311.9;" xml:space="preserve">
<style type="text/css">
	.st0{fill:#FFCC33;}
</style>
<g id="layer1">
	<g id="g4322">
		<path id="path4159" class="st0" d="M147.8,0c-16.7,0.5-29.1,14-38.4,26.5c-9.4,12.7-16.8,26.8-24,40.8
			c-10.2-27.3-29.8-53-58.1-62.9C20.9,1.6,11.1,0.5,7,7.6c-4.6,7.5-3.9,16.8-7,24.8c0.1,5.9,7.4,6.4,11.8,6.9
			c17.5,2.8,28.6,19,34.9,34.2c15,35.5,16,75.1,17.9,113.2c12.3-2.1,24.9-2.9,37.4-2.3c-0.8-18-1.5-36-3.1-53.9
			c13.3-30.7,24.2-63.1,44.8-89.9c1.8-2.9,3.2-0.2,4.2,2c6.1,12.9,7.4,27.7,10.1,41.7c5.2,34.1,8.3,68.6,9.3,103.1
			c-0.1,23.5-4,49.4-21.4,66.8c-13.1,12.8-31,18-48.3,22.5c-5.6,2.2-7.6,8.9-5.8,14.2c1,7.3,1.8,17.3,9.9,20.1
			c9.4,2.9,18.8-1.9,27.7-4.4c27.6-9.5,53-29,64-56.7c2.3-5.3,4-10.8,5.9-16.2c27.5,18.6,67.9,15,90.9-9.2
			c23.4-23.7,27.9-64.2,8.1-91.5c-18.4-26.8-56-38.4-86.2-25.9c-4.4,1.8-8.6,4-12.5,6.6c-4-32.2-7.7-65.5-23.3-94.5
			C170.2,9.1,160.2-0.3,147.8,0L147.8,0z M239.6,139.8c19.2,0,36.3,18.7,33.3,38c-2,17.6-19.3,32.6-37.4,30.2
			c-21-1.9-36.8-26.2-28.5-46C212,148.8,225.2,139,239.6,139.8L239.6,139.8z"/>
	</g>
</g>
</svg>
