<svg id="Calque_1" data-name="Calque 1" xmlns="http://www.w3.org/2000/svg" viewBox="0 0 291.32 208.57"><defs><style>.cls-1{fill:#010101;}</style></defs><g id="layer1"><g id="g4322"><path id="path4171" class="cls-1" d="M121.84,74.87C93.16,94,62.93,110.8,35.43,131.6,30,136.81,28.64,146.26,34.08,152c3.17,6,9.65,12.18,17,9.44,11.46-3.35,20.16-12.12,30.5-17.69q13.13-8.46,26.31-16.82c6.49,12.8,10.61,27.22,20,38.34,6.55,4.92,14.78.09,19.94-4.57,14.88-10.57,29.55-21.42,44.42-32,6.36,15.43,12.54,30.93,18.82,46.4,20.86-15.94,42.19-31.4,63.77-46.23C279,138.4,281,150,289.31,157.05c7,4.38,15.21.14,21.77-3,3.85-1.23,8.08-2.83,10.16-6.59-9.43-21.7-16.63-44.53-27.74-65.41-6.22-5.86-15.64-1.79-21,3.28-15.28,10.83-30.33,22-45.6,32.8-5.53-12-8.24-25.72-16.82-36-6.35-5.12-15.44-1.88-20.46,3.53-15.27,11-30.48,22.13-45.81,33.08Q133.59,96.32,123.4,73.88l-1.56,1ZM289.9,192.06c-14.9,4.61-26.19,16-38.92,24.4-8,5.81-16,11.56-24.08,17.16-5.47-12.25-8.73-25.91-17.19-36.57-5.74-4.83-14-1.55-18.58,3.22-15.76,11.31-31.45,22.72-47.24,34-6.52-12.62-10.71-26.66-19.22-38.15-3.62-3.51-9.72-2.79-12.9.92-26.53,17-53.56,33.4-79.39,51.4-5.54,6.92-.67,16.31,4.18,22.13,2.59,3.94,4.67,11.52,10.77,10.46,4.28-1.44,7.12-5.4,11.32-7.08,16.4-10.48,32.71-21.1,49.18-31.46,5.9,11.36,8.85,24.5,17,34.59,7.17,6.58,18.2,3.62,25-2,12.38-8.67,24.16-18.17,36.63-26.73a46.42,46.42,0,0,1,5.93-3.92c5.15,11.58,8.44,24.23,15.39,34.9,6.19,5.93,15.91,2.35,21.5-2.67,15.3-10.5,30.11-22,45.42-32.29C279,254,281.32,265.36,289,273c7.8,4.82,16.73-1.05,23.69-4.65,6.24-4.26,6.92-13.42,2.72-19.34-7.9-19.21-14.83-38.86-24.2-57.43l-.75.28-.6.22Z" transform="translate(-29.92 -73.88)"/></g></g></svg>