<?xml version="1.0" encoding="utf-8"?>
<!-- Generator: Adobe Illustrator 26.0.2, SVG Export Plug-In . SVG Version: 6.00 Build 0)  -->
<svg version="1.1" id="Calque_1" xmlns="http://www.w3.org/2000/svg" xmlns:xlink="http://www.w3.org/1999/xlink" x="0px" y="0px"
	 viewBox="0 0 291.3 208.6" style="enable-background:new 0 0 291.3 208.6;" xml:space="preserve">
<style type="text/css">
	.st0{fill:#66CC33;}
</style>
<g id="layer1">
	<g id="g4322">
		<path id="path4171" class="st0" d="M91.9,1C63.2,20.1,33,36.9,5.5,57.7c-5.4,5.2-6.8,14.7-1.3,20.4c3.2,6,9.7,12.2,17,9.4
			c11.5-3.4,20.2-12.1,30.5-17.7C60.4,64.2,69.2,58.6,78,53c6.5,12.8,10.6,27.2,20,38.3c6.6,4.9,14.8,0.1,19.9-4.6
			c14.9-10.6,29.6-21.4,44.4-32c6.4,15.4,12.5,30.9,18.8,46.4C202,85.3,223.3,69.8,244.9,55c4.2,9.5,6.2,21.1,14.5,28.2
			c7,4.4,15.2,0.1,21.8-3c3.9-1.2,8.1-2.8,10.2-6.6c-9.4-21.7-16.6-44.5-27.7-65.4c-6.2-5.9-15.6-1.8-21,3.3
			c-15.3,10.8-30.3,22-45.6,32.8c-5.5-12-8.2-25.7-16.8-36c-6.4-5.1-15.4-1.9-20.5,3.5c-15.3,11-30.5,22.1-45.8,33.1
			C107.1,29.9,100.3,15,93.5,0L91.9,1L91.9,1z M260,118.2c-14.9,4.6-26.2,16-38.9,24.4c-8,5.8-16,11.6-24.1,17.2
			c-5.5-12.2-8.7-25.9-17.2-36.6c-5.7-4.8-14-1.6-18.6,3.2c-15.8,11.3-31.4,22.7-47.2,34c-6.5-12.6-10.7-26.7-19.2-38.1
			c-3.6-3.5-9.7-2.8-12.9,0.9c-26.5,17-53.6,33.4-79.4,51.4c-5.5,6.9-0.7,16.3,4.2,22.1c2.6,3.9,4.7,11.5,10.8,10.5
			c4.3-1.4,7.1-5.4,11.3-7.1c16.4-10.5,32.7-21.1,49.2-31.5c5.9,11.4,8.8,24.5,17,34.6c7.2,6.6,18.2,3.6,25-2
			c12.4-8.7,24.2-18.2,36.6-26.7c1.9-1.5,3.9-2.8,5.9-3.9c5.1,11.6,8.4,24.2,15.4,34.9c6.2,5.9,15.9,2.4,21.5-2.7
			c15.3-10.5,30.1-22,45.4-32.3c4.3,9.6,6.6,21,14.3,28.6c7.8,4.8,16.7-1,23.7-4.6c6.2-4.3,6.9-13.4,2.7-19.3
			c-7.9-19.2-14.8-38.9-24.2-57.4l-0.8,0.3L260,118.2L260,118.2z"/>
	</g>
</g>
</svg>
