<svg id="Calque_1" data-name="Calque 1" xmlns="http://www.w3.org/2000/svg" viewBox="0 0 256.14 312.35"><defs><style>.cls-1{fill:#010101;}</style></defs><g id="layer1"><g id="g4322"><path id="path4183" class="cls-1" d="M-347.52-749.81c-8.66-.14-13.08,9.62-12.34,17.17-.14,7.1,1.5,15.74,8.48,19.25,7.47,16.24,6.57,34.32,8.44,51.83,2.95,49.92,2.65,100.09,2.19,150.06-1.21,5.27,4.91,8.75,9.49,7.34,9.26-.33,18.67.13,28-.09q-.54-66.46-1.09-132.92c7.87-20.09,15.32-40.37,24.27-60,5.85,38.08,5.58,76.68,6.94,115.13.52,25.94.74,51.88,1.12,77.82h36.83c-.62-44-1.07-88.09-2.94-132.09,8.24-20.71,15.85-41.76,25.37-61.89,5.49,36.52,5.11,73.66,6.15,110.59.38,28.23.42,56.46,1.12,84.68-14.2,8.32-30.2,12.95-45.87,18,4.29,9.74,2.61,22.76,11.69,30,8.31,4.78,17.42-1.37,25.46-3.63,6-2.29,11.93-5,17.86-7.5,7.09,12.1,17.35,23.22,30.56,28.48,8.78,1.34,14.61-7.28,17.45-14.36,2.1-4.05,5.95-7.76,5.72-12.65-8.54-5.79-18.07-11.89-22.05-21.92,42.29-36,66.83-93.44,59.63-149-2.38-16-8.5-33.3-22.53-42.68-11.8-7.48-27.59-6.06-38.74,1.95a60.65,60.65,0,0,0-7.66,5.89c-2.48-22.76-4.35-47-17-66.79-6.32-8.8-19.55-13.1-28.95-6.8-13,7-20.08,21.43-26.86,33.23-3-13.13-8-28.14-20.87-34.64-11.17-4.66-23.79,1.88-30.51,11-5.73,6.55-10.22,14.2-14.23,21.79-3.65-14.68-11.26-31-26.71-36.11a27.18,27.18,0,0,0-8.4-1.19Zm201.33,104.67c4.9,7.53,4.87,17,5.63,25.68.75,30.49-10.84,60.11-28.53,84.56-.43-25.53-.54-51.06-.8-76.59,6.73-12,12.12-25.59,23.69-33.65Z" transform="translate(359.94 749.81)"/></g></g></svg>