<svg id="Calque_1" data-name="Calque 1" xmlns="http://www.w3.org/2000/svg" viewBox="0 0 317.15 316.5"><defs><style>.cls-1{fill:#010101;}</style></defs><g id="layer1"><g id="g4322"><path id="path4161" class="cls-1" d="M-244.56,32.76c-5.2-.1-5.81,6-5.73,9.87-.91,8.83-4,18.93,1.55,26.92,32.58,5.25,65.48,8.19,98.18,12.45Q-212.36,143.52-274,205.13l-57.28-57.26q-13.05,13.17-26.11,26.35l57.14,57.14-91.54,91.55,26.11,26.35L-274,257.61l57.54,57.53L-190.17,289c-19.09-19.2-38.38-38.18-57.27-57.57q61.14-62,123.06-123.23c4.21,32.72,7.27,65.71,12.34,98.29,2.89,5.88,10.33,3.48,15.33,2.81l22-2.25C-82.37,155.46-87.09,103.43-94,51.68c-49.32-6.66-99-11-148.14-18.54a9.33,9.33,0,0,0-2.46-.37Z" transform="translate(391.83 -32.76)"/></g></g></svg>