<?xml version="1.0" encoding="utf-8"?>
<!-- Generator: Adobe Illustrator 26.0.2, SVG Export Plug-In . SVG Version: 6.00 Build 0)  -->
<svg version="1.1" id="Calque_1" xmlns="http://www.w3.org/2000/svg" xmlns:xlink="http://www.w3.org/1999/xlink" x="0px" y="0px"
	 viewBox="0 0 317.1 316.5" style="enable-background:new 0 0 317.1 316.5;" xml:space="preserve">
<style type="text/css">
	.st0{fill:#FF0000;}
</style>
<g id="layer1">
	<g id="g4322">
		<path id="path4161" class="st0" d="M147.3,0c-5.2-0.1-5.8,6-5.7,9.9c-0.9,8.8-4,18.9,1.6,26.9c32.6,5.2,65.5,8.2,98.2,12.4
			c-41.2,41-82.3,82.1-123.4,123.1l-57.3-57.3c-8.7,8.8-17.4,17.6-26.1,26.4l57.1,57.1L0,290.2l26.1,26.4l91.7-91.7l57.5,57.5
			l26.3-26.1c-19.1-19.2-38.4-38.2-57.3-57.6c40.8-41.3,81.8-82.4,123.1-123.2c4.2,32.7,7.3,65.7,12.3,98.3
			c2.9,5.9,10.3,3.5,15.3,2.8l22-2.2c-7.7-51.6-12.4-103.6-19.3-155.4c-49.3-6.7-99-11-148.1-18.5C148.9,0.1,148.1,0,147.3,0
			L147.3,0z"/>
	</g>
</g>
</svg>
