<svg id="Calque_1" data-name="Calque 1" xmlns="http://www.w3.org/2000/svg" viewBox="0 0 219.39 287.51"><defs><style>.cls-1{fill:#010101;}</style></defs><g id="layer1"><g id="g4322"><path id="path4199" class="cls-1" d="M-210.72-1128.63c-42.86.09-83.49,35.38-87.06,78.54-1.18,11.35.57,22.8,3.49,33.76-26.61,5.63-46.71,31.19-47.19,58.19-1.17,24.71,13.35,49.89,36.51,59.47,22.1,10.22,50.47,6.51,67.81-11.1,21.55-20.35,27.16-56.74,9.49-81.29-8.15-11.82-22.77-18.56-27.3-32.9-8.48-22,1.07-50.27,23.07-60.25,19.18-9.52,44.21-4,57.73,12.42,10.35,11.91,13.85,29.74,7,44.19-8.62,20.47-26.07,35.56-35.31,55.72-14.87,28.58-23,62.75-13.72,94.38,5.84,18.37,21.77,34.79,41.77,36.07a72.11,72.11,0,0,0,49.75-14.26c4.72-5.33,2.09-13.16-1.79-18.14-3.24-6.15-7.7-14.42-15.79-14-10.2,1.52-19.69,10.43-30.13,6.11-8.88-5.43-9-17.46-8.53-26.71,2.05-28.84,17.69-55.16,35.42-77.63,15.6-22.39,26-50.93,19-78.25-9.54-36.86-45.94-65.3-84.22-64.3Zm-68.23,150c15.54-.16,27.33,18.24,20.49,32.3-5.5,12.69-23.53,18.07-34.48,9-10.46-7.52-12.64-24.51-3-33.63a22.71,22.71,0,0,1,17-7.68Z" transform="translate(341.55 1128.66)"/></g></g></svg>