<svg id="Calque_1" data-name="Calque 1" xmlns="http://www.w3.org/2000/svg" viewBox="0 0 294.38 323.33"><defs><style>.cls-1{fill:#010101;}</style></defs><g id="layer1"><g id="g4322"><path id="path4185" class="cls-1" d="M32.36-750c.78,10.16-1.2,20.56.9,30.58a12.43,12.43,0,0,0,10.07,8.81c2.67,5.32,3.42,11.54,4.74,17.33,4.08,25.82,4,52,5,78.09.89,37.78.68,75.58,1.17,113.37H93.18c.06-44.18-.49-88.36-1.32-132.53,9.63-21.58,18.49-43.6,29.72-64.38,6.67,33.55,7,67.83,8.43,101.81.86,31.69.77,63.4.75,95.1H170c-.1-44-1-88.07-3.2-132.06,9.91-22.17,18.75-44.86,30.78-66,7.85,43,7.22,87,8.35,130.57.22,26.82-1.36,54.25,5.52,80.45,4.37,14.52,15.42,27.26,30.18,31.7,8.84,3.23,18.23,4.56,27.54,5.6v22.91c18.16-11.66,37.88-21,55.18-33.92,5.54-6.8.27-17.2-7.16-20.07-15.4-9.77-31.37-18.62-46.93-28.13l-.72,20c-7.52-.61-17.95-2.5-19.73-11.26-6.64-23.07-4.21-47.26-5.64-70.94-1.3-47.94-1.92-96.5-13.37-143.33-3.31-11.87-8.66-25-20.18-31-10.71-4.73-23.21.54-30.36,9.07-9.34,9.24-16,20.7-22.28,32.14-2.93-13.9-6.84-30.05-19.88-37.92-12.07-6.4-27.44-1.23-35.67,9C95-727.21,89.38-718,84.2-708.7c-3.76-15.82-12.15-33-28.39-38.88-7.57-2.62-15.7-2.58-23.45-4.35V-750Z" transform="translate(-32.26 751.93)"/></g></g></svg>