<?xml version="1.0" encoding="utf-8"?>
<!-- Generator: Adobe Illustrator 26.0.2, SVG Export Plug-In . SVG Version: 6.00 Build 0)  -->
<svg version="1.1" id="Calque_1" xmlns="http://www.w3.org/2000/svg" xmlns:xlink="http://www.w3.org/1999/xlink" x="0px" y="0px"
	 viewBox="0 0 294.4 323.3" style="enable-background:new 0 0 294.4 323.3;" xml:space="preserve">
<style type="text/css">
	.st0{fill:#0033FF;}
</style>
<g id="layer1">
	<g id="g4322">
		<path id="path4185" class="st0" d="M0.1,1.9C0.9,12.1-1.1,22.5,1,32.5c1.4,4.6,5.3,8.1,10.1,8.8c2.7,5.3,3.4,11.5,4.7,17.3
			c4.1,25.8,4,52,5,78.1c0.9,37.8,0.7,75.6,1.2,113.4h38.9c0.1-44.2-0.5-88.4-1.3-132.5C69.2,96,78.1,74,89.3,53.2
			c6.7,33.5,7,67.8,8.4,101.8c0.9,31.7,0.8,63.4,0.8,95.1h39.2c-0.1-44-1-88.1-3.2-132.1c9.9-22.2,18.8-44.9,30.8-66
			c7.9,43,7.2,87,8.4,130.6c0.2,26.8-1.4,54.2,5.5,80.5c4.4,14.5,15.4,27.3,30.2,31.7c8.8,3.2,18.2,4.6,27.5,5.6v22.9
			c18.2-11.7,37.9-21,55.2-33.9c5.5-6.8,0.3-17.2-7.2-20.1c-15.4-9.8-31.4-18.6-46.9-28.1l-0.7,20c-7.5-0.6-17.9-2.5-19.7-11.3
			c-6.6-23.1-4.2-47.3-5.6-70.9c-1.3-47.9-1.9-96.5-13.4-143.3c-3.3-11.9-8.7-25-20.2-31c-10.7-4.7-23.2,0.5-30.4,9.1
			c-9.3,9.2-16,20.7-22.3,32.1c-2.9-13.9-6.8-30-19.9-37.9c-12.1-6.4-27.4-1.2-35.7,9c-7.4,7.8-13.1,17-18.2,26.3
			c-3.8-15.8-12.2-33-28.4-38.9C16,1.7,7.8,1.8,0.1,0C0.1,0,0.1,1.9,0.1,1.9z"/>
	</g>
</g>
</svg>
