<?xml version="1.0" encoding="utf-8"?>
<!-- Generator: Adobe Illustrator 26.0.2, SVG Export Plug-In . SVG Version: 6.00 Build 0)  -->
<svg version="1.1" id="Calque_1" xmlns="http://www.w3.org/2000/svg" xmlns:xlink="http://www.w3.org/1999/xlink" x="0px" y="0px"
	 viewBox="0 0 256.1 312.4" style="enable-background:new 0 0 256.1 312.4;" xml:space="preserve">
<style type="text/css">
	.st0{fill:#996633;}
</style>
<g id="layer1">
	<g id="g4322">
		<path id="path4183" class="st0" d="M12.4,0C3.8-0.1-0.7,9.6,0.1,17.2C0,24.3,1.6,32.9,8.6,36.4C16,52.7,15.1,70.7,17,88.2
			c3,49.9,2.6,100.1,2.2,150.1c-1.2,5.3,4.9,8.8,9.5,7.3c9.3-0.3,18.7,0.1,28-0.1c-0.4-44.3-0.7-88.6-1.1-132.9
			c7.9-20.1,15.3-40.4,24.3-60c5.9,38.1,5.6,76.7,6.9,115.1c0.5,25.9,0.7,51.9,1.1,77.8h36.8c-0.6-44-1.1-88.1-2.9-132.1
			c8.2-20.7,15.9-41.8,25.4-61.9c5.5,36.5,5.1,73.7,6.1,110.6c0.4,28.2,0.4,56.5,1.1,84.7c-14.2,8.3-30.2,13-45.9,18
			c4.3,9.7,2.6,22.8,11.7,30c8.3,4.8,17.4-1.4,25.5-3.6c6-2.3,11.9-5,17.9-7.5c7.1,12.1,17.4,23.2,30.6,28.5
			c8.8,1.3,14.6-7.3,17.4-14.4c2.1-4,5.9-7.8,5.7-12.6c-8.5-5.8-18.1-11.9-22.1-21.9c42.3-36,66.8-93.4,59.6-149
			c-2.4-16-8.5-33.3-22.5-42.7c-11.8-7.5-27.6-6.1-38.7,2c-2.7,1.8-5.3,3.7-7.7,5.9c-2.5-22.8-4.4-47-17-66.8
			c-6.3-8.8-19.6-13.1-28.9-6.8c-13,7-20.1,21.4-26.9,33.2c-3-13.1-8-28.1-20.9-34.6C81-0.2,68.4,6.4,61.7,15.5
			C56,22,51.6,29.7,47.5,37.2c-3.6-14.7-11.3-31-26.7-36.1C18.1,0.3,15.3-0.1,12.4,0L12.4,0z M213.8,104.7c4.9,7.5,4.9,17,5.6,25.7
			c0.8,30.5-10.8,60.1-28.5,84.6c-0.4-25.5-0.5-51.1-0.8-76.6C196.8,126.3,202.2,112.7,213.8,104.7L213.8,104.7z"/>
	</g>
</g>
</svg>
