<?xml version="1.0" encoding="utf-8"?>
<!-- Generator: Adobe Illustrator 26.0.2, SVG Export Plug-In . SVG Version: 6.00 Build 0)  -->
<svg version="1.1" id="Calque_1" xmlns="http://www.w3.org/2000/svg" xmlns:xlink="http://www.w3.org/1999/xlink" x="0px" y="0px"
	 viewBox="0 0 300.3 206.6" style="enable-background:new 0 0 300.3 206.6;" xml:space="preserve">
<style type="text/css">
	.st0{fill:#0033FF;}
</style>
<g id="layer1">
	<g id="g4322">
		<path id="path4195" class="st0" d="M150.2,0C111.8,0.7,71.5,4.7,37.8,24.7C15.7,38.3-1,63.1,0.8,89.8
			c1.4,32.8,27.5,63.7,60.7,67.5c24.7,4.2,52.4-6.2,65.2-28.5c15.6-25.6,11.8-59.5-4.5-83.9c-1.2-2.3-5-5.6,0-4.8
			c42.5-3.8,85.3-0.9,127.7,2.8c13.6,1.1,27.2,3.3,40.7,3.6c8.3-2,10.8-12.3,9.3-19.7c0.7-4.5,1.7-11.8-4.2-13.3
			C247.5,5.7,199-0.5,150.2,0L150.2,0z M229.1,49.1c-32.9,1-63.9,27.6-67.9,60.6c-1.8,20.3,7.6,39.8,19.6,55.6
			c-54.1,5.9-108.6,0.4-162.5-5.4c-5.9-0.5-13.1-0.1-16.2,5.9c-3.2,4.8-2.1,10.6-1.8,15.9c-0.8,4.5,0.5,11,6.1,11.1
			c51,8.3,102.6,15,154.4,13.6c37.5-1.7,76.5-8.7,108-30.4c18-12.8,31.6-33.6,30.9-56.2c0.1-31.7-22.8-62.9-54.4-69.1
			C240.1,49.5,234.6,48.9,229.1,49.1L229.1,49.1z M74.7,51.6c7.8,7.2,14.2,15.7,19,25.1c4.7,9.9,7.6,23.9-1,32.7
			c-8.3,8-20.8,11.5-32,9.8c-8.8-1.5-16.1-8.7-16.9-17.7C40,80.6,54.7,60.2,73.4,52.2C73.8,51.9,74.2,51.7,74.7,51.6L74.7,51.6z
			 M231.6,87.3c14.2-0.4,28.9,12.5,26.8,27.5c-1.8,18.3-16.9,32.9-33.2,39.6c-3.3-2.2-5.2-6.3-8.2-8.9c-8.5-10-18.1-22.8-14.8-36.7
			C205.5,96.2,218.4,86.7,231.6,87.3L231.6,87.3z"/>
	</g>
</g>
</svg>
