<svg id="Calque_1" data-name="Calque 1" xmlns="http://www.w3.org/2000/svg" viewBox="0 0 240.64 319.69"><defs><style>.cls-1{fill:#010101;}</style></defs><g id="layer1"><g id="g4322"><path id="path4163" class="cls-1" d="M272.58,30.71c-35.9,37-61.37,85.38-66.23,137.1.94,5.82-7.09,2-10.59,3.05l-41.39-.24C150.08,120.91,124.81,65,89.26,29.77c-11.46,9.3-18.91,15.56-29,25.17,31,28.58,50.9,68.38,57.5,109.84.61,3.62,1.82,8-3.69,6.17-14.73,0-29.49.23-44.12,2v34.79H118.4c-3.6,36.35-19.39,71.08-42.3,99.36-5,5.89-10.41,11.57-15.69,17.26l26.52,24.8c37.82-37.34,63.5-87.74,67.45-141.07l51.78-.3c3.21,50.95,28.3,98.45,62.25,135.7,2.92,4,5.86,7.67,9.27,1.92l23.23-21.17c-31.7-29.05-52.06-70-58.14-112.26-2.56-5.73,3-4.17,6.76-4.23h41.22V173c-16.05-2-32.26-2.07-48.41-2,3.76-37.12,20.17-72.71,44-101.28,4.43-5.2,9.12-10.24,13.82-15.24L273.68,29.5Z" transform="translate(-60.27 -29.5)"/></g></g></svg>