<?xml version="1.0" encoding="utf-8"?>
<!-- Generator: Adobe Illustrator 26.0.2, SVG Export Plug-In . SVG Version: 6.00 Build 0)  -->
<svg version="1.1" id="Calque_1" xmlns="http://www.w3.org/2000/svg" xmlns:xlink="http://www.w3.org/1999/xlink" x="0px" y="0px"
	 viewBox="0 0 240.6 319.7" style="enable-background:new 0 0 240.6 319.7;" xml:space="preserve">
<style type="text/css">
	.st0{fill:#0033FF;}
</style>
<g id="layer1">
	<g id="g4322">
		<path id="path4163" class="st0" d="M212.3,1.2c-35.9,37-61.4,85.4-66.2,137.1c0.9,5.8-7.1,2-10.6,3.1l-41.4-0.2
			C89.8,91.4,64.5,35.5,29,0.3C17.5,9.6,10.1,15.8,0,25.4C31,54,50.9,93.8,57.5,135.3c0.6,3.6,1.8,8-3.7,6.2
			c-14.7,0-29.5,0.2-44.1,2v34.8h48.5c-3.6,36.4-19.4,71.1-42.3,99.4c-5,5.9-10.4,11.6-15.7,17.3l26.5,24.8
			c37.8-37.3,63.5-87.7,67.4-141.1l51.8-0.3c3.2,50.9,28.3,98.4,62.2,135.7c2.9,4,5.9,7.7,9.3,1.9l23.2-21.2
			c-31.7-29-52.1-70-58.1-112.3c-2.6-5.7,3-4.2,6.8-4.2h41.2v-34.7c-16-2-32.3-2.1-48.4-2c3.8-37.1,20.2-72.7,44-101.3
			c4.4-5.2,9.1-10.2,13.8-15.2L213.4,0L212.3,1.2z"/>
	</g>
</g>
</svg>
