<?xml version="1.0" encoding="utf-8"?>
<!-- Generator: Adobe Illustrator 26.0.2, SVG Export Plug-In . SVG Version: 6.00 Build 0)  -->
<svg version="1.1" id="Calque_1" xmlns="http://www.w3.org/2000/svg" xmlns:xlink="http://www.w3.org/1999/xlink" x="0px" y="0px"
	 viewBox="0 0 268.3 289.4" style="enable-background:new 0 0 268.3 289.4;" xml:space="preserve">
<style type="text/css">
	.st0{fill:#66CC33;}
</style>
<g id="layer1">
	<g id="g4322">
		<path id="path4173" class="st0" d="M13.4,0C5.6,0.2,2.4,9,1.6,15.5C0,22.1-2.1,31.4,4.7,35.8c16.3,5.9,34,6.5,50.9,10
			c0.1,65.2,0.2,130.4,0.1,195.6c-16.7,2.7-34,4.1-50,9.6c-7.4,4.8-5.7,15-3.8,22.3c1.2,5.4,2.5,10.7,3.7,16.1
			c80.2-17.7,164-19,244.5-2.6c4.3,0.8,8.5,1.7,12.8,2.6c0.7-11.1,7.7-22,4.4-33.1c-4.1-8.3-14.9-8-22.6-9.7
			c-10.5-1.9-21.1-3.5-31.7-5c0-65.3-0.6-130.6,0-195.8c16.8-3,34.4-4.1,50.6-9.8c6.8-4.6,4.6-14,3.2-20.8c-0.7-6.8-5-15.5-13-14.9
			c-16.1,1.4-31.6,6.2-47.6,7.3C142.9,15.3,78.5,12.3,16,0.1C15.1,0,14.3,0,13.4,0L13.4,0z M173.9,143.6l0.2,94.1
			c-26.4-1.1-52.8-1.1-79.2,0v-188c26.2,1.4,52.6,0.9,78.8-0.2L173.9,143.6L173.9,143.6z"/>
	</g>
</g>
</svg>
