<svg id="Calque_1" data-name="Calque 1" xmlns="http://www.w3.org/2000/svg" viewBox="0 0 268.28 289.37"><defs><style>.cls-1{fill:#010101;}</style></defs><g id="layer1"><g id="g4322"><path id="path4173" class="cls-1" d="M59.59-345.51c-7.8.22-11,9-11.72,15.52-1.67,6.58-3.73,15.87,3.08,20.33,16.33,5.94,34,6.51,50.87,10q.2,97.8.14,195.6C85.25-101.32,68-100,52-94.51c-7.41,4.78-5.74,15-3.76,22.27,1.16,5.37,2.46,10.7,3.66,16.06,80.19-17.73,164-19,244.51-2.56,4.27.82,8.53,1.72,12.78,2.6.7-11.09,7.67-22,4.39-33.15-4.11-8.33-14.86-8-22.65-9.74q-15.81-2.82-31.73-5c0-65.28-.61-130.56,0-195.83,16.8-3,34.36-4.12,50.6-9.77,6.84-4.63,4.65-14,3.22-20.79-.74-6.82-5-15.53-13-14.85-16.07,1.41-31.56,6.17-47.6,7.29-63.26,7.74-127.66,4.74-190.23-7.43-.84-.06-1.69-.1-2.54-.08ZM220.16-201.94l.18,94.08q-39.57-1.59-79.18,0V-295.83c26.25,1.41,52.57.93,78.82-.18l.18,94.07Z" transform="translate(-46.22 345.51)"/></g></g></svg>