<svg id="Calque_1" data-name="Calque 1" xmlns="http://www.w3.org/2000/svg" viewBox="0 0 268.43 288.97"><defs><style>.cls-1{fill:#010101;}</style></defs><g id="layer1"><g id="g4322"><path id="path4175" class="cls-1" d="M-773.92-346.85c-7.42,1.82-2.83,11.22-4.11,16.41-.05,7.72,0,15.44,0,23.16,9.57-.8,21.11-1.24,27.69,7.17,20.74,19.64,32.56,46.65,53.14,66.45-31,19.43-47.33,58.48-41,94.29,5.29,34.73,30.43,66.51,64.5,76.72,33,10.9,72.38,3,96.46-22.7C-547-116-538.85-167.79-561.95-204.9a91.33,91.33,0,0,0-28.58-28.85c21.49-20.81,33.32-49.84,56.43-69.07,5.62-4.2,12.82-5.37,19.61-5.24,6.08-2.22,4.43-9.8,4.46-14.79V-345.7c-16.6-1.52-34.71.82-47.69,12.17-27.67,21-39.73,56-66.63,77.72-13.44,9.57-33.09,7.12-44.65-4.6-23.42-22.3-35.7-54.55-62.22-73.89C-743.33-344-759-346-773.91-346.85Zm131.64,135.61c32.9.07,61,33.46,55.11,66-3.94,28.6-32.22,51.91-61.23,48.92-25.46-2.15-48.92-23.18-52.22-49.08-3.62-22.6,7.63-47.05,28.07-58a59.12,59.12,0,0,1,30.27-7.81Z" transform="translate(778.28 346.85)"/></g></g></svg>