<svg id="Calque_1" data-name="Calque 1" xmlns="http://www.w3.org/2000/svg" viewBox="0 0 300.34 206.55"><defs><style>.cls-1{fill:#010101;}</style></defs><g id="layer1"><g id="g4322"><path id="path4195" class="cls-1" d="M-643.92-1087.75c-38.42.72-78.7,4.62-112.42,24.67-22.13,13.56-38.8,38.44-37,65.09,1.36,32.79,27.52,63.7,60.65,67.51,24.73,4.19,52.42-6.24,65.24-28.47,15.63-25.61,11.81-59.54-4.52-83.87-1.25-2.27-5-5.55,0-4.82,42.46-3.85,85.3-.93,127.66,2.78,13.56,1.14,27.16,3.27,40.73,3.58,8.34-2,10.77-12.3,9.28-19.74.66-4.54,1.7-11.84-4.25-13.26-48.06-7.8-96.58-14-145.37-13.46Zm78.94,49.07c-32.9,1-63.87,27.61-67.87,60.58-1.76,20.33,7.64,39.83,19.64,55.64-54.11,5.87-108.62.38-162.52-5.42-5.89-.5-13.07-.09-16.16,5.87-3.2,4.79-2.1,10.63-1.81,15.92-.81,4.48.48,11,6.14,11.11,51,8.3,102.64,15,154.43,13.56,37.53-1.66,76.53-8.7,108-30.37,18-12.83,31.65-33.56,30.94-56.24.14-31.67-22.81-62.9-54.43-69.11a67.82,67.82,0,0,0-16.38-1.54Zm-154.4,2.49a90.55,90.55,0,0,1,19,25.11c4.73,9.91,7.58,23.9-1,32.68-8.27,8-20.75,11.53-32,9.83-8.78-1.46-16.1-8.73-16.93-17.7-3.84-20.86,10.91-41.32,29.6-49.32a2.85,2.85,0,0,1,1.31-.6Zm156.87,35.71c14.25-.41,28.94,12.5,26.79,27.55-1.79,18.33-16.89,32.86-33.15,39.59-3.32-2.22-5.18-6.26-8.24-8.9-8.49-10-18.09-22.75-14.79-36.71,3.33-12.65,16.18-22.09,29.39-21.53Z" transform="translate(794.12 1087.78)"/></g></g></svg>